<?xml version="1.0" encoding="utf-8"?>
<!-- Generator: Adobe Illustrator 16.0.0, SVG Export Plug-In . SVG Version: 6.00 Build 0)  -->
<!DOCTYPE svg PUBLIC "-//W3C//DTD SVG 1.1//EN" "http://www.w3.org/Graphics/SVG/1.1/DTD/svg11.dtd">
<svg version="1.1" id="Layer_1" xmlns="http://www.w3.org/2000/svg" xmlns:xlink="http://www.w3.org/1999/xlink" x="0px" y="0px"
	 width="24px" height="24px" viewBox="0 0 24 24" enable-background="new 0 0 24 24" xml:space="preserve">
<path fill="#F7941E" d="M18.959,10.236c0.291-1.892-1.189-2.909-3.217-3.588l0.656-2.562l-1.604-0.389l-0.641,2.495
	c-0.421-0.102-0.854-0.198-1.285-0.294l0.645-2.512L11.91,2.998L11.253,5.56c-0.35-0.078-0.692-0.154-1.024-0.234l0.001-0.008
	L8.019,4.781L7.591,6.447c0,0,1.19,0.265,1.165,0.282c0.65,0.157,0.767,0.575,0.748,0.907l-0.749,2.919
	c0.045,0.011,0.103,0.028,0.167,0.053c-0.054-0.014-0.111-0.027-0.17-0.042l-1.049,4.09c-0.08,0.191-0.281,0.479-0.735,0.369
	c0.016,0.022-1.166-0.282-1.166-0.282l-0.797,1.786l2.088,0.506c0.389,0.095,0.77,0.193,1.144,0.287l-0.664,2.592l1.603,0.389
	l0.658-2.563c0.438,0.114,0.862,0.223,1.278,0.321l-0.655,2.554l1.604,0.389l0.664-2.587c2.735,0.503,4.794,0.301,5.659-2.104
	c0.697-1.938-0.035-3.057-1.477-3.783C17.959,12.291,18.748,11.621,18.959,10.236L18.959,10.236z M15.293,15.234
	c-0.496,1.937-3.851,0.89-4.938,0.627l0.881-3.433C12.323,12.691,15.812,13.214,15.293,15.234z M15.789,10.208
	c-0.453,1.763-3.244,0.867-4.15,0.647l0.799-3.114C13.344,7.96,16.26,8.37,15.789,10.208z"/>
</svg>
