<?xml version="1.0" encoding="utf-8"?>
<!-- Generator: Adobe Illustrator 16.0.0, SVG Export Plug-In . SVG Version: 6.00 Build 0)  -->
<!DOCTYPE svg PUBLIC "-//W3C//DTD SVG 1.1//EN" "http://www.w3.org/Graphics/SVG/1.1/DTD/svg11.dtd">
<svg version="1.1" id="Layer_1" xmlns="http://www.w3.org/2000/svg" xmlns:xlink="http://www.w3.org/1999/xlink" x="0px" y="0px"
	 width="24px" height="24px" viewBox="0 0 24 24" enable-background="new 0 0 24 24" xml:space="preserve">
<path fill="#FFFFFF" d="M16.607,13.396c-0.789,0-1.431-0.625-1.431-1.397c0-0.771,0.642-1.397,1.431-1.397
	c2.148,0,3.893-1.702,3.893-3.801C20.5,4.702,18.757,3,16.607,3c-2.148,0-3.893,1.702-3.893,3.801c0,0.688,0.188,1.334,0.518,1.891
	c0,0.004,0.002,0.008,0.006,0.011c0.395,0.668,0.16,1.522-0.523,1.908c-0.67,0.378-1.521,0.168-1.928-0.468
	c-0.01-0.014-0.041-0.067-0.046-0.079c-0.678-1.117-1.924-1.866-3.35-1.866C5.242,8.198,3.5,9.901,3.5,12
	c0,2.1,1.742,3.801,3.891,3.801c1.434,0,2.688-0.758,3.362-1.886c0.001-0.005,0.005-0.009,0.007-0.015
	c0.005-0.006,0.008-0.012,0.013-0.021c0.401-0.65,1.265-0.873,1.941-0.49c0.679,0.385,0.914,1.228,0.533,1.894
	c-0.002,0.006-0.021,0.034-0.022,0.038c-0.324,0.554-0.509,1.195-0.509,1.878c0,2.1,1.742,3.802,3.892,3.802
	c2.15,0,3.894-1.701,3.894-3.802C20.5,15.1,18.757,13.396,16.607,13.396z"/>
</svg>
