<?xml version="1.0" encoding="UTF-8" standalone="no"?>
<!-- Created with Inkscape (http://www.inkscape.org/) -->

<svg
   xmlns:dc="http://purl.org/dc/elements/1.1/"
   xmlns:cc="http://creativecommons.org/ns#"
   xmlns:rdf="http://www.w3.org/1999/02/22-rdf-syntax-ns#"
   xmlns:svg="http://www.w3.org/2000/svg"
   xmlns="http://www.w3.org/2000/svg"
   version="1.1"
   width="20"
   height="20"
   viewBox="0 0 20 20"
   id="Layer_1"
   xml:space="preserve"><metadata
     id="metadata9"><rdf:RDF><cc:Work
         rdf:about=""><dc:format>image/svg+xml</dc:format><dc:type
           rdf:resource="http://purl.org/dc/dcmitype/StillImage" /><dc:title></dc:title></cc:Work></rdf:RDF></metadata><defs
     id="defs7" /><path
     d="m 19.774451,12.052611 -2.052445,-2.052444 2.052445,-2.0517781 c 0.300732,-0.301399 0.300732,-0.793505 0,-1.094904 L 13.147015,0.22604902 c -0.300732,-0.3013987 -0.792838,-0.3013987 -1.094904,0 L 10.000333,2.278494 7.947889,0.22604902 c -0.301399,-0.3013987 -0.793506,-0.3013987 -1.094904,0 L 0.22554893,6.8534849 c -0.3007319,0.300732 -0.3007319,0.793505 0,1.094904 L 2.2779936,10.000167 0.22554893,12.052611 c -0.3007319,0.300732 -0.3007319,0.792839 0,1.094237 L 6.852985,19.774951 c 0.301398,0.300065 0.793505,0.300065 1.094904,0 l 2.052444,-2.052444 2.051778,2.052444 c 0.301399,0.300065 0.793506,0.300065 1.094904,0 l 6.627436,-6.628103 c 0.300732,-0.300731 0.300732,-0.793505 0,-1.094237 z m -9.774118,-4.6363371 2.583894,2.5838931 -2.583894,2.58456 -2.58456,-2.58456 2.58456,-2.5838931 z"
     id="path3"
     style="fill:#ffffff" /></svg>