<?xml version="1.0" encoding="UTF-8" standalone="no"?>
<!-- Created with Inkscape (http://www.inkscape.org/) -->

<svg
   xmlns:dc="http://purl.org/dc/elements/1.1/"
   xmlns:cc="http://creativecommons.org/ns#"
   xmlns:rdf="http://www.w3.org/1999/02/22-rdf-syntax-ns#"
   xmlns:svg="http://www.w3.org/2000/svg"
   xmlns="http://www.w3.org/2000/svg"
   version="1.1"
   width="20"
   height="20"
   viewBox="0 0 20 20"
   id="Layer_1"
   xml:space="preserve"><metadata
     id="metadata9"><rdf:RDF><cc:Work
         rdf:about=""><dc:format>image/svg+xml</dc:format><dc:type
           rdf:resource="http://purl.org/dc/dcmitype/StillImage" /><dc:title></dc:title></cc:Work></rdf:RDF></metadata><defs
     id="defs7" /><path
     d="M 19.774451,12.05231 17.722006,9.999917 19.774451,7.94819 c 0.300732,-0.301391 0.300732,-0.793485 0,-1.094876 L 13.147015,0.2260431 c -0.300732,-0.3013908 -0.793505,-0.3013908 -1.094904,0 l -2.051778,2.052394 -2.052444,-2.052394 c -0.301399,-0.3013908 -0.793506,-0.3013908 -1.094904,0 L 0.22554893,6.853314 c -0.3007319,0.300724 -0.3007319,0.793485 0,1.094876 L 2.2779936,9.999917 0.22554893,12.05231 c -0.3007319,0.301391 -0.3007319,0.793485 0,1.09421 L 6.852985,19.774457 c 0.301398,0.300724 0.793505,0.300724 1.094904,0 l 2.052444,-2.052394 2.051778,2.052394 c 0.301399,0.300724 0.793506,0.300724 1.094904,0 l 6.627436,-6.627937 c 0.300732,-0.300725 0.300732,-0.793486 0,-1.09421 z m -9.774118,-4.636222 2.583894,2.583829 -2.583894,2.584495 -2.58456,-2.584495 2.58456,-2.583829 z"
     id="path3"
     style="fill:#4dacc6" /></svg>