<?xml version="1.0" encoding="UTF-8" standalone="no"?>
<!-- Created with Inkscape (http://www.inkscape.org/) -->

<svg
   xmlns:dc="http://purl.org/dc/elements/1.1/"
   xmlns:cc="http://creativecommons.org/ns#"
   xmlns:rdf="http://www.w3.org/1999/02/22-rdf-syntax-ns#"
   xmlns:svg="http://www.w3.org/2000/svg"
   xmlns="http://www.w3.org/2000/svg"
   version="1.1"
   width="20"
   height="20"
   viewBox="0 0 20 20"
   id="Layer_1"
   xml:space="preserve"><metadata
     id="metadata9"><rdf:RDF><cc:Work
         rdf:about=""><dc:format>image/svg+xml</dc:format><dc:type
           rdf:resource="http://purl.org/dc/dcmitype/StillImage" /><dc:title></dc:title></cc:Work></rdf:RDF></metadata><defs
     id="defs7" /><path
     d="M 19.774451,12.052712 17.722006,10.00025 19.774451,7.9484551 c 0.300732,-0.301401 0.300732,-0.793512 0,-1.094913 L 13.147015,0.22605098 c -0.300732,-0.3014013 -0.792838,-0.3014013 -1.094904,0 L 10.000333,2.278513 7.947889,0.22605098 c -0.301399,-0.3014013 -0.793506,-0.3014013 -1.094904,0 L 0.22554893,6.8535421 c -0.3007319,0.300734 -0.3007319,0.793512 0,1.094913 L 2.2779936,10.00025 0.22554893,12.052712 c -0.3007319,0.300734 -0.3007319,0.792845 0,1.094246 L 6.852985,19.774449 c 0.301398,0.300735 0.793505,0.300735 1.094904,0 l 2.052444,-2.051795 2.051778,2.051795 c 0.301399,0.300735 0.793506,0.300735 1.094904,0 l 6.627436,-6.627491 c 0.300732,-0.300734 0.300732,-0.793512 0,-1.094246 z m -9.774118,-4.6363769 2.583894,2.5839149 -2.583894,2.584582 -2.58456,-2.584582 2.58456,-2.5839149 z"
     id="path3"
     style="fill:#9baeb3" /></svg>
