<?xml version="1.0" encoding="utf-8"?>
<!-- Generator: Adobe Illustrator 16.0.0, SVG Export Plug-In . SVG Version: 6.00 Build 0)  -->
<!DOCTYPE svg PUBLIC "-//W3C//DTD SVG 1.1//EN" "http://www.w3.org/Graphics/SVG/1.1/DTD/svg11.dtd">
<svg version="1.1" id="Layer_1" xmlns="http://www.w3.org/2000/svg" xmlns:xlink="http://www.w3.org/1999/xlink" x="0px" y="0px"
	 width="9.985px" height="26px" viewBox="0 0 9.985 26" enable-background="new 0 0 9.985 26" xml:space="preserve">
<path fill-rule="evenodd" clip-rule="evenodd" fill="#FFFFFF" d="M1.626,10.351l4.04,4.073c0.372,0.375,0.372,0.982,0,1.357
	c-0.372,0.375-0.975,0.375-1.347,0l-4.04-4.073c-0.372-0.375-0.372-0.983,0-1.357C0.651,9.976,1.254,9.976,1.626,10.351z"/>
<path fill-rule="evenodd" clip-rule="evenodd" fill="#FFFFFF" d="M9.706,10.351c0.372,0.375,0.372,0.982,0,1.357l-4.041,4.073
	c-0.372,0.375-0.975,0.375-1.347,0c-0.372-0.375-0.372-0.982,0-1.357l4.041-4.073C8.731,9.976,9.334,9.976,9.706,10.351z"/>
</svg>
